<svg width="24" height="24" viewBox="0 0 24 24" fill="none" xmlns="http://www.w3.org/2000/svg">
<path d="M7 16L7.27627 17.6576C7.54232 19.2539 7.67535 20.0521 8.23484 20.526C8.79433 21 9.6035 21 11.2218 21H12.7782C14.3965 21 15.2057 21 15.7652 20.526C16.3247 20.0521 16.4577 19.2539 16.7237 17.6576L17 16" stroke="#DAFF7D" stroke-width="2" stroke-linecap="round" stroke-linejoin="round"/>
<path d="M13.5 4.5C14 3.5 15 3 16 3" stroke="#DAFF7D" stroke-width="2" stroke-linecap="round"/>
<circle cx="12" cy="6" r="2" stroke="#DAFF7D" stroke-width="2" stroke-linecap="round" stroke-linejoin="round"/>
<path d="M14 5.34131C15.3777 5.82857 16.5237 6.80492 17.2305 8.06006C19.3681 8.40903 20.9998 10.2628 21 12.4995C21 14.9848 18.9853 16.9995 16.5 16.9995C15.7484 16.9995 15.0398 16.8131 14.417 16.4868C13.6774 16.8136 12.8605 16.9995 12 16.9995C11.1387 16.9995 10.3207 16.8134 9.58008 16.4858C8.9581 16.8115 8.2512 16.9995 7.5 16.9995C5.01472 16.9995 3 14.9848 3 12.4995C3.00018 10.2635 4.63086 8.40983 6.76758 8.06006C7.47453 6.80441 8.62156 5.82839 10 5.34131V7.53564C9.26385 7.96164 8.67535 8.61531 8.33203 9.40186C8.1764 9.75828 7.8273 9.9922 7.43848 10.0015C6.08623 10.0339 5.00019 11.1399 5 12.4995C5 13.8802 6.11929 14.9995 7.5 14.9995C8.04107 14.9995 8.53977 14.827 8.9502 14.5337L9.07422 14.4585C9.37155 14.3052 9.72999 14.3096 10.0264 14.478C10.6091 14.8095 11.2814 14.9995 12 14.9995C12.718 14.9995 13.3897 14.8095 13.9727 14.478L14.1035 14.4155C14.4151 14.294 14.7715 14.3354 15.0488 14.5337C15.4589 14.827 15.9581 14.9995 16.5 14.9995C17.8807 14.9995 19 13.8802 19 12.4995C18.9998 11.1396 17.9133 10.0334 16.5605 10.0015C16.1718 9.9923 15.8237 9.75817 15.668 9.40186C15.3246 8.61546 14.7359 7.9626 14 7.53662V5.34131Z" fill="#DAFF7D"/>
</svg>
