<svg width="14" height="14" viewBox="0 0 14 14" fill="none" xmlns="http://www.w3.org/2000/svg">
<path d="M6.98932 3.64761C7.83978 4.96684 8.97164 6.08817 10.3057 6.93081L4.8985 12.34C4.47344 12.7651 4.26018 12.9776 3.99909 13.1173C3.73812 13.2569 3.44352 13.316 2.85456 13.4337L0.652407 13.8742C0.319796 13.9407 0.153265 13.9737 0.0586566 13.8791C-0.0356891 13.7845 -0.00288167 13.6184 0.0635394 13.2863L0.503969 11.0841C0.621833 10.4948 0.68071 10.1997 0.820375 9.93863C0.960074 9.6776 1.17288 9.46503 1.59772 9.04019L6.98932 3.64761ZM10.2491 0.413236C10.9672 -0.137745 11.9665 -0.137745 12.6846 0.413236C12.7885 0.493013 12.8977 0.602827 13.1163 0.821439C13.3353 1.04045 13.4456 1.15002 13.5255 1.25406C14.0761 1.97207 14.0762 2.97062 13.5255 3.68863C13.4456 3.79267 13.3353 3.90224 13.1163 4.12124L11.7628 5.47378C10.3776 4.6958 9.23274 3.55942 8.4444 2.19253L9.81647 0.821439C10.0353 0.602614 10.1451 0.493044 10.2491 0.413236Z" fill="#DAFF7D"/>
</svg>
