<svg width="14" height="14" viewBox="0 0 14 14" fill="none" xmlns="http://www.w3.org/2000/svg">
<g clip-path="url(#clip0_2767_21318)">
<path fill-rule="evenodd" clip-rule="evenodd" d="M0.5 9C0.500001 4.30558 4.30558 0.5 9 0.5H11C12.3807 0.5 13.5 1.61929 13.5 3V5C13.5 9.69442 9.69442 13.5 5 13.5H3C1.61929 13.5 0.5 12.3807 0.5 11V9ZM6.44194 5.55806C6.19786 5.31398 5.80214 5.31398 5.55806 5.55806C5.31398 5.80214 5.31398 6.19786 5.55806 6.44194L6.55806 7.44194L7.55806 8.44194C7.80214 8.68602 8.19786 8.68602 8.44194 8.44194C8.68602 8.19786 8.68602 7.80214 8.44194 7.55806L7.44194 6.55806L6.44194 5.55806ZM7.80806 3.30806C8.05214 3.06398 8.44786 3.06398 8.69194 3.30806L9.69194 4.30806L10.6919 5.30806C10.936 5.55214 10.936 5.94786 10.6919 6.19194C10.4479 6.43602 10.0521 6.43602 9.80806 6.19194L8.80806 5.19194L7.80806 4.19194C7.56398 3.94786 7.56398 3.55214 7.80806 3.30806ZM4.19194 7.80806C3.94786 7.56398 3.55214 7.56398 3.30806 7.80806C3.06398 8.05214 3.06398 8.44786 3.30806 8.69194L4.30806 9.69194L5.30806 10.6919C5.55214 10.936 5.94786 10.936 6.19194 10.6919C6.43602 10.4479 6.43602 10.0521 6.19194 9.80806L5.19194 8.80806L4.19194 7.80806Z" fill="#450693"/>
</g>
<defs>
<clipPath id="clip0_2767_21318">
<rect width="14" height="14" fill="white"/>
</clipPath>
</defs>
</svg>
