<svg width="14" height="14" viewBox="0 0 14 14" fill="none" xmlns="http://www.w3.org/2000/svg">
<g clip-path="url(#clip0_1222_1311)">
<path fill-rule="evenodd" clip-rule="evenodd" d="M5.29344 0.190674C5.03123 0.190674 4.87765 0.360927 4.8178 0.443971C4.75451 0.531787 4.71626 0.627992 4.69284 0.694194C4.65017 0.81481 4.61256 0.969486 4.5795 1.10551L4.56746 1.15491C4.48274 1.50122 4.40095 1.78221 4.28368 1.94066C4.24706 1.99014 4.16666 2.06107 4.02286 2.14609C3.8844 2.22795 3.72152 2.30327 3.55047 2.37729C3.51021 2.39471 3.46765 2.4128 3.42432 2.43121C3.29994 2.48407 3.16925 2.53961 3.06891 2.5896C3.00111 2.62337 2.91429 2.67018 2.83833 2.73064C2.79064 2.76859 2.59698 2.9253 2.59698 3.1994C2.59698 3.47351 2.79064 3.63022 2.83833 3.66817C2.91429 3.72862 3.00111 3.77543 3.06891 3.80921C3.16926 3.8592 3.29993 3.91473 3.42432 3.9676C3.46755 3.98597 3.51029 4.00414 3.55047 4.02152C3.72152 4.09553 3.8844 4.17085 4.02286 4.25271C4.16666 4.33773 4.24706 4.40867 4.28368 4.45815C4.40095 4.61659 4.48274 4.89759 4.56746 5.2439L4.5795 5.2933C4.61256 5.42931 4.65017 5.58401 4.69284 5.70461C4.71626 5.77081 4.75451 5.86702 4.8178 5.95483C4.87765 6.03788 5.03123 6.20813 5.29344 6.20813C5.55564 6.20813 5.70923 6.03788 5.76908 5.95483C5.83237 5.86702 5.87061 5.77081 5.89403 5.70461C5.93671 5.584 5.97431 5.42932 6.00737 5.2933L6.01941 5.24389C6.10413 4.89758 6.18592 4.61659 6.30319 4.45814C6.33981 4.40866 6.42021 4.33773 6.56402 4.2527C6.70247 4.17084 6.86535 4.09552 7.0364 4.02151C7.07666 4.00409 7.11923 3.986 7.16256 3.96758C7.28695 3.91472 7.41761 3.85919 7.51796 3.8092C7.58576 3.77542 7.67258 3.72861 7.74854 3.66816C7.79622 3.63021 7.98989 3.47351 7.98989 3.1994C7.98989 2.92528 7.79622 2.76858 7.74854 2.73063C7.67258 2.67018 7.58576 2.62337 7.51796 2.58959C7.41761 2.5396 7.28695 2.48407 7.16256 2.43121C7.11936 2.41284 7.07655 2.39466 7.0364 2.37728C6.86535 2.30327 6.70247 2.22795 6.56402 2.14609C6.42021 2.06106 6.33981 1.99013 6.30319 1.94065C6.18592 1.78221 6.10413 1.50121 6.01941 1.1549L6.00737 1.1055C5.97431 0.969482 5.93671 0.814807 5.89403 0.694192C5.87061 0.62799 5.83236 0.531785 5.76907 0.44397C5.70922 0.360925 5.55564 0.190674 5.29344 0.190674ZM5.71149 7.40767C6.34534 7.2519 6.85422 6.74916 7.00145 6.08918L7.00117 6.09048L7.00567 6.07142C7.01028 6.05228 7.01792 6.02123 7.02842 5.98116C7.04971 5.89984 7.08112 5.7875 7.12078 5.66529C7.1612 5.54074 7.20486 5.4225 7.24828 5.32422C7.2623 5.29248 7.27433 5.26735 7.284 5.24811L7.29821 5.23824C7.37897 5.18295 7.49195 5.11788 7.62544 5.05061C7.75484 4.98539 7.87935 4.93018 7.97239 4.89112C8.01806 4.87195 8.05406 4.85755 8.07669 4.84866L8.09916 4.83992C8.51426 4.68576 8.84481 4.38515 9.04106 4.00962L12.458 3.06144L12.4635 3.0599C12.629 3.01533 12.8025 3.00936 12.9707 3.04241C13.1389 3.07546 13.2973 3.14667 13.4336 3.25055C13.57 3.35443 13.6807 3.48821 13.7572 3.64161C13.8143 3.75602 13.8512 3.87907 13.8666 4.00534C13.8721 4.04195 13.8749 4.07917 13.8749 4.11673V4.13741L13.875 4.13951L13.8749 5.4486V9.94413C13.8749 9.97115 13.8735 9.99784 13.8707 10.0241C13.8023 11.1163 12.8947 11.981 11.7852 11.981C10.6312 11.981 9.69562 11.0454 9.69562 9.89136C9.69562 8.73729 10.6312 7.80173 11.7852 7.80173C11.99 7.80173 12.1879 7.83118 12.3749 7.88609V6.43533L7.21149 7.86962V11.7902L7.21155 11.8068C7.21155 12.9609 6.27599 13.8965 5.12192 13.8965C3.96785 13.8965 3.03229 12.9609 3.03229 11.8068C3.03229 10.6528 3.96785 9.71719 5.12192 9.71719C5.32665 9.71719 5.52451 9.74664 5.71149 9.80152V7.40767ZM1.96289 5.89917C2.3771 5.89917 2.71289 6.23496 2.71289 6.64917V7.03323H3.09698C3.5112 7.03323 3.84698 7.36902 3.84698 7.78323C3.84698 8.19745 3.5112 8.53323 3.09698 8.53323H2.71289V8.9173C2.71289 9.33151 2.3771 9.6673 1.96289 9.6673C1.54868 9.6673 1.21289 9.33151 1.21289 8.9173V8.53323H0.828857C0.414644 8.53323 0.0788574 8.19745 0.0788574 7.78323C0.0788574 7.36902 0.414644 7.03323 0.828857 7.03323H1.21289V6.64917C1.21289 6.23496 1.54868 5.89917 1.96289 5.89917Z" fill="#450693"/>
</g>
<defs>
<clipPath id="clip0_1222_1311">
<rect width="14" height="14" fill="white"/>
</clipPath>
</defs>
</svg>
